<svg width="671" height="296" viewBox="0 0 671 296" fill="none" xmlns="http://www.w3.org/2000/svg">
<path d="M80.5 170.5L103 176.5L123.5 170.5M80.5 170.5L85 165.5M80.5 170.5H73L80.5 265.5L89 277.5L123.5 271L133 260.5L129 170.5H123.5M123.5 170.5L118.5 165.5M118.5 165.5H85M118.5 165.5V147H85V165.5" stroke="#243956"/>
<path d="M332.75 201H311.5L298 206.5L256.5 187.5L270 178.5L280.5 121L290 102.5L316.5 109L332.5 102.5H354L366 121L393 178.5H405V187.5L354 201H332.75ZM332.75 201L323.5 233H298L280.5 241L256.5 262.5L248.5 292" stroke="#243956"/>
<path d="M344 202V238H379L395 247.5L408.5 283.5" stroke="#243956"/>
<path d="M165 146L164 72.5L279 64.5L288.5 105.5" stroke="#243956"/>
<path d="M164.5 146L277 138" stroke="#243956"/>
<path d="M165 146L158.5 206L279 198" stroke="#243956"/>
<path d="M404.5 221.5L407 249L414 256.5H436L440 249V219M404.5 221.5L404 216L410 207L419 205.25M404.5 221.5L422.25 220.25M440 219V216L436 207L428 203.5L419 205.25M440 219L422.25 220.25M419 205.25L422.25 220.25M492 187.392L484.5 188L492 249L531.5 246.5L521.5 185L513 185.689M492 187.392V191.5H513V185.689M492 187.392L513 185.689M329.721 97L325 4L487 1L491.714 91.5M329.721 97L329.86 99.75H353.86H380H404.5M329.721 97L491.714 91.5M491.714 91.5L492 97L423.5 98.9928M423.5 98.9928L423 153.5L436 156.5L457 164L419 174H391L384.5 159L404.5 153.5V99.75M423.5 98.9928L404.5 99.75M168 76.5V140.5L278 134.5L280.5 121L286 110L277 70L168 76.5ZM171 151L276.5 143.5L273.5 159L271 173.5L168 179.5L171 151ZM209.5 182.5V198L242.5 195L239.5 179.5L209.5 182.5Z" stroke="#243956"/>
<path d="M494 126.5V159.5L520.5 164L545.5 156L540.5 126.5M494 126.5L516.5 131L540.5 126.5M494 126.5L501 123H531L540.5 126.5M523.5 126.5L531 111.5L540.5 107M540.5 107V101.5H545.5L549.5 107V115.5L543 117.5L538 111.5L540.5 107ZM520.5 126.5L527.5 104L534 93M534 93L527.5 88L531 82.5L534 79.5L540.5 82.5L545.5 88V93H534ZM514 126.5L520.5 96.5L514 93M514 93V96.5L506.5 99L501 93L503.5 82.5H514L516.5 88L514 93ZM506.5 126.5V111.5L499 109M499 109L501 115.5L494 117.5L487 115.5L489 106.5L494 101.5H501L499 109Z" stroke="#243956"/>
<path d="M164.5 139.5H69.5L1 295" stroke="#243956"/>
<path d="M375 140.5H404" stroke="#243956"/>
<path d="M423 141L493.5 141.5" stroke="#243956"/>
<path d="M543.5 141.5H577L666 292.5" stroke="#243956"/>
<path d="M211 269.5V217.5L329 213.5" stroke="#243956"/>
<path d="M344 213L408 210.5" stroke="#243956"/>
<path d="M437.5 209.5H465L475 262" stroke="#243956"/>
</svg>
